<svg width="24" height="24" viewBox="0 0 24 24" fill="none" xmlns="http://www.w3.org/2000/svg">
<path d="M12 23.6667C10.4056 23.6667 8.89861 23.3603 7.47916 22.7474C6.05972 22.1345 4.81994 21.2984 3.75983 20.239C2.7005 19.1797 1.86439 17.9403 1.2515 16.5209C0.638607 15.1014 0.332552 13.5945 0.33333 12C0.33333 10.3862 0.639774 8.87415 1.25266 7.46404C1.86555 6.05393 2.70166 4.8196 3.761 3.76104C4.82033 2.70093 6.05933 1.86482 7.478 1.25271C8.89666 0.640596 10.404 0.334152 12 0.333374C13.6139 0.333374 15.1259 0.639819 16.536 1.25271C17.9461 1.8656 19.1804 2.70171 20.239 3.76104C21.2991 4.82037 22.1352 6.0551 22.7473 7.46521C23.3594 8.87532 23.6659 10.3869 23.6667 12V13.6917C23.6667 14.8389 23.2731 15.8162 22.486 16.6235C21.6989 17.4309 20.7313 17.8342 19.5833 17.8334C18.8833 17.8334 18.2319 17.6778 17.6292 17.3667C17.0264 17.0556 16.5306 16.6473 16.1417 16.1417C15.6167 16.6667 14.9991 17.0801 14.289 17.3819C13.5789 17.6837 12.8159 17.8342 12 17.8334C10.3861 17.8334 9.01022 17.2644 7.87233 16.1265C6.73444 14.9887 6.16589 13.6132 6.16666 12C6.16666 10.3862 6.73561 9.01026 7.8735 7.87237C9.01139 6.73449 10.3869 6.16593 12 6.16671C13.6139 6.16671 14.9898 6.73565 16.1277 7.87354C17.2656 9.01143 17.8341 10.3869 17.8333 12V13.6917C17.8333 14.2556 18.0083 14.6978 18.3583 15.0182C18.7083 15.3387 19.1167 15.4993 19.5833 15.5C20.05 15.5 20.4583 15.3394 20.8083 15.0182C21.1583 14.697 21.3333 14.2548 21.3333 13.6917V12C21.3333 9.45282 20.4144 7.26026 18.5765 5.42237C16.7386 3.58449 14.5464 2.66593 12 2.66671C9.45277 2.66671 7.26022 3.58565 5.42233 5.42354C3.58444 7.26143 2.66589 9.4536 2.66666 12C2.66666 14.5473 3.58561 16.7398 5.4235 18.5777C7.26138 20.4156 9.45355 21.3342 12 21.3334H17.8333V23.6667H12ZM12 15.5C12.9722 15.5 13.7986 15.1598 14.4792 14.4792C15.1597 13.7987 15.5 12.9723 15.5 12C15.5 11.0278 15.1597 10.2014 14.4792 9.52087C13.7986 8.84032 12.9722 8.50004 12 8.50004C11.0278 8.50004 10.2014 8.84032 9.52083 9.52087C8.84027 10.2014 8.5 11.0278 8.5 12C8.5 12.9723 8.84027 13.7987 9.52083 14.4792C10.2014 15.1598 11.0278 15.5 12 15.5Z" fill="black"/>
</svg>
