<svg width="19" height="24" viewBox="0 0 19 24" fill="none" xmlns="http://www.w3.org/2000/svg">
<path d="M2.49951 7.20148C2.16526 4.99998 3.71751 3.02248 6.08876 2.29798C6.50956 2.16932 6.96357 2.20595 7.35831 2.40039C7.75304 2.59483 8.05879 2.93246 8.21326 3.34448L8.97451 5.37448C9.09706 5.70105 9.11921 6.0568 9.03814 6.39605C8.95707 6.73531 8.77646 7.0426 8.51951 7.27848L6.25501 9.35223C6.14339 9.45466 6.06021 9.58427 6.01359 9.72842C5.96698 9.87257 5.95851 10.0263 5.98901 10.1747L6.01001 10.2657L6.06426 10.4932C6.34588 11.5986 6.77498 12.6611 7.34001 13.652C7.9555 14.705 8.71933 15.6639 9.60801 16.4992L9.67801 16.5622C9.79106 16.6626 9.92818 16.7319 10.076 16.7635C10.2238 16.7951 10.3773 16.7879 10.5215 16.7425L13.4493 15.8202C13.782 15.7158 14.1383 15.7131 14.4726 15.8126C14.8069 15.912 15.1038 16.1091 15.3253 16.3785L16.7113 18.0602C17.2888 18.7602 17.2188 19.7892 16.5555 20.407C14.7408 22.0992 12.2453 22.4457 10.5093 21.051C8.38131 19.3345 6.58743 17.2411 5.21726 14.8752C3.83597 12.5112 2.91507 9.90773 2.49951 7.20148ZM7.82476 10.2902L9.70076 8.56823C10.215 8.09667 10.5765 7.48218 10.739 6.80366C10.9014 6.12514 10.8574 5.41354 10.6125 4.76023L9.85301 2.73023C9.54211 1.90116 8.92679 1.22184 8.13244 0.830673C7.33808 0.43951 6.42447 0.365949 5.57776 0.62498C2.63251 1.52623 0.268258 4.16698 0.768758 7.46573C1.11876 9.76873 1.92551 12.6982 3.70526 15.7572C5.1835 18.3082 7.11856 20.5654 9.41376 22.416C12.0178 24.5072 15.4933 23.7932 17.7508 21.6897C18.3967 21.0883 18.7888 20.263 18.847 19.3823C18.9052 18.5017 18.6252 17.632 18.064 16.9507L16.678 15.2672C16.2346 14.7291 15.6406 14.3356 14.9721 14.1373C14.3036 13.939 13.5911 13.9449 12.926 14.1542L10.4953 14.919C9.86766 14.2719 9.31792 13.5536 8.85726 12.7787C8.41227 11.9954 8.0655 11.1602 7.82476 10.292V10.2902Z" fill="black"/>
</svg>
