<svg width="24" height="22" viewBox="0 0 24 22" fill="none" xmlns="http://www.w3.org/2000/svg">
<path d="M4.017 16.0514C4.1727 16.2049 4.292 16.3903 4.36641 16.5943C4.44082 16.7983 4.46851 17.0159 4.4475 17.2316C4.34208 18.23 4.14222 19.2165 3.8505 20.1784C5.943 19.7025 7.221 19.1515 7.8015 18.8627C8.13076 18.6989 8.50993 18.6601 8.8665 18.7536C9.88865 19.0213 10.9421 19.1561 12 19.1544C17.994 19.1544 22.5 15.0185 22.5 10.3139C22.5 5.61077 17.994 1.47342 12 1.47342C6.006 1.47342 1.5 5.61077 1.5 10.3139C1.5 12.4769 2.4255 14.4837 4.017 16.0514ZM3.2775 21.8051C2.9221 21.8743 2.56555 21.9377 2.208 21.9952C1.908 22.0423 1.68 21.7358 1.7985 21.4618C1.93169 21.1533 2.05376 20.8402 2.1645 20.5232L2.169 20.5085C2.541 19.4476 2.844 18.2276 2.955 17.0916C1.1145 15.2793 0 12.9071 0 10.3139C0 4.61769 5.373 0 12 0C18.627 0 24 4.61769 24 10.3139C24 16.0101 18.627 20.6278 12 20.6278C10.8115 20.6294 9.62788 20.4778 8.4795 20.177C7.6995 20.5645 6.021 21.2702 3.2775 21.8051Z" fill="black" fill-opacity="0.5"/>
</svg>
