<svg width="24" height="19" viewBox="0 0 24 19" fill="none" xmlns="http://www.w3.org/2000/svg">
<path d="M3.96774 -0.0292969H20.3226C21.3236 -0.0292969 22.2835 0.369206 22.9913 1.07854C23.6991 1.78788 24.0968 2.74995 24.0968 3.75311V15.1003C24.0968 16.1035 23.6991 17.0656 22.9913 17.7749C22.2835 18.4842 21.3236 18.8827 20.3226 18.8827H3.96774C2.96676 18.8827 2.00678 18.4842 1.29898 17.7749C0.59118 17.0656 0.193542 16.1035 0.193542 15.1003V3.75311C0.193542 2.74995 0.59118 1.78788 1.29898 1.07854C2.00678 0.369206 2.96676 -0.0292969 3.96774 -0.0292969ZM3.96774 1.23151C3.3387 1.23151 2.78516 1.44584 2.35741 1.82408L12.1452 8.16592L21.9329 1.82408C21.5052 1.44584 20.9516 1.23151 20.3226 1.23151H3.96774ZM12.1452 9.69149L1.61516 2.84533C1.51451 3.12271 1.45161 3.43791 1.45161 3.75311V15.1003C1.45161 15.7691 1.7167 16.4105 2.18856 16.8834C2.66043 17.3563 3.30042 17.6219 3.96774 17.6219H20.3226C20.9899 17.6219 21.6299 17.3563 22.1017 16.8834C22.5736 16.4105 22.8387 15.7691 22.8387 15.1003V3.75311C22.8387 3.43791 22.7758 3.12271 22.6752 2.84533L12.1452 9.69149Z" fill="black" fill-opacity="0.5"/>
</svg>
